<mxfile host="app.diagrams.net" modified="2021-06-02T03:39:56.999Z" agent="5.0 (Macintosh; Intel Mac OS X 11_4_0) AppleWebKit/537.36 (KHTML, like Gecko) Chrome/89.0.4389.90 Safari/537.36" etag="ndp424jmPeRefFmuTdCx" version="14.7.0" type="github">
  <diagram id="Ke1duY0slpdfgTV59xbp" name="Page-1">
    <mxGraphModel dx="1217" dy="769" grid="1" gridSize="10" guides="1" tooltips="1" connect="1" arrows="1" fold="1" page="1" pageScale="1" pageWidth="1169" pageHeight="1654" math="0" shadow="0">
      <root>
        <mxCell id="0" />
        <mxCell id="1" parent="0" />
        <mxCell id="KqvpYg1X1Bu0fvfL4t6J-1" value="PGraph" style="shape=cylinder3;whiteSpace=wrap;html=1;boundedLbl=1;backgroundOutline=1;size=15;" vertex="1" parent="1">
          <mxGeometry x="580" y="235" width="60" height="90" as="geometry" />
        </mxCell>
        <mxCell id="KqvpYg1X1Bu0fvfL4t6J-3" style="edgeStyle=orthogonalEdgeStyle;rounded=0;orthogonalLoop=1;jettySize=auto;html=1;entryX=1;entryY=0.5;entryDx=0;entryDy=0;entryPerimeter=0;" edge="1" parent="1" source="KqvpYg1X1Bu0fvfL4t6J-2" target="KqvpYg1X1Bu0fvfL4t6J-1">
          <mxGeometry relative="1" as="geometry" />
        </mxCell>
        <mxCell id="KqvpYg1X1Bu0fvfL4t6J-2" value="hdsf" style="shape=cylinder3;whiteSpace=wrap;html=1;boundedLbl=1;backgroundOutline=1;size=15;" vertex="1" parent="1">
          <mxGeometry x="730" y="240" width="60" height="80" as="geometry" />
        </mxCell>
        <mxCell id="KqvpYg1X1Bu0fvfL4t6J-6" style="edgeStyle=orthogonalEdgeStyle;rounded=0;orthogonalLoop=1;jettySize=auto;html=1;entryX=0;entryY=0.5;entryDx=0;entryDy=0;entryPerimeter=0;" edge="1" parent="1" source="KqvpYg1X1Bu0fvfL4t6J-4" target="KqvpYg1X1Bu0fvfL4t6J-1">
          <mxGeometry relative="1" as="geometry" />
        </mxCell>
        <mxCell id="KqvpYg1X1Bu0fvfL4t6J-4" value="niseko-api" style="rounded=0;whiteSpace=wrap;html=1;" vertex="1" parent="1">
          <mxGeometry x="370" y="250" width="120" height="60" as="geometry" />
        </mxCell>
        <mxCell id="KqvpYg1X1Bu0fvfL4t6J-8" value="" style="endArrow=none;dashed=1;html=1;dashPattern=1 3;strokeWidth=2;" edge="1" parent="1">
          <mxGeometry width="50" height="50" relative="1" as="geometry">
            <mxPoint x="609.5" y="230" as="sourcePoint" />
            <mxPoint x="609.5" y="120" as="targetPoint" />
          </mxGeometry>
        </mxCell>
        <mxCell id="KqvpYg1X1Bu0fvfL4t6J-9" value="" style="endArrow=none;dashed=1;html=1;dashPattern=1 3;strokeWidth=2;" edge="1" parent="1">
          <mxGeometry width="50" height="50" relative="1" as="geometry">
            <mxPoint x="609.5" y="435" as="sourcePoint" />
            <mxPoint x="609.5" y="325" as="targetPoint" />
          </mxGeometry>
        </mxCell>
        <mxCell id="KqvpYg1X1Bu0fvfL4t6J-12" style="edgeStyle=orthogonalEdgeStyle;rounded=0;orthogonalLoop=1;jettySize=auto;html=1;entryX=0;entryY=0.5;entryDx=0;entryDy=0;" edge="1" parent="1" source="KqvpYg1X1Bu0fvfL4t6J-10" target="KqvpYg1X1Bu0fvfL4t6J-4">
          <mxGeometry relative="1" as="geometry" />
        </mxCell>
        <mxCell id="KqvpYg1X1Bu0fvfL4t6J-10" value="saratoga-console" style="rounded=0;whiteSpace=wrap;html=1;" vertex="1" parent="1">
          <mxGeometry x="160" y="180" width="120" height="60" as="geometry" />
        </mxCell>
        <mxCell id="KqvpYg1X1Bu0fvfL4t6J-14" style="edgeStyle=orthogonalEdgeStyle;rounded=0;orthogonalLoop=1;jettySize=auto;html=1;entryX=0;entryY=0.5;entryDx=0;entryDy=0;" edge="1" parent="1" source="KqvpYg1X1Bu0fvfL4t6J-11" target="KqvpYg1X1Bu0fvfL4t6J-4">
          <mxGeometry relative="1" as="geometry" />
        </mxCell>
        <mxCell id="KqvpYg1X1Bu0fvfL4t6J-11" value="..." style="rounded=0;whiteSpace=wrap;html=1;" vertex="1" parent="1">
          <mxGeometry x="160" y="320" width="120" height="60" as="geometry" />
        </mxCell>
        <mxCell id="KqvpYg1X1Bu0fvfL4t6J-15" value="离线数据导入" style="text;html=1;strokeColor=none;fillColor=none;align=center;verticalAlign=middle;whiteSpace=wrap;rounded=0;" vertex="1" parent="1">
          <mxGeometry x="660" y="400" width="90" height="20" as="geometry" />
        </mxCell>
        <mxCell id="KqvpYg1X1Bu0fvfL4t6J-16" value="在线实时查询" style="text;html=1;strokeColor=none;fillColor=none;align=center;verticalAlign=middle;whiteSpace=wrap;rounded=0;" vertex="1" parent="1">
          <mxGeometry x="365" y="400" width="90" height="20" as="geometry" />
        </mxCell>
      </root>
    </mxGraphModel>
  </diagram>
</mxfile>
